<svg width="13" height="22" viewBox="0 0 13 22" fill="none" xmlns="http://www.w3.org/2000/svg">
<g clip-path="url(#clip0)">
<path d="M-0.00126553 2.15327C-0.000881195 2.24502 0.0192013 2.33573 0.0577488 2.41982C0.0962973 2.50391 0.152495 2.57961 0.222894 2.64228L9.0012 10.9998L0.22156 19.3561C0.151706 19.419 0.0960636 19.4948 0.0580368 19.5789C0.02001 19.663 0.000395775 19.7535 0.000395775 19.8451C0.000395775 19.9366 0.02001 20.0272 0.0580368 20.1113C0.0960636 20.1954 0.151706 20.2712 0.22156 20.3341L1.3397 21.3972C1.40579 21.4637 1.48543 21.5167 1.57375 21.5529C1.66208 21.5891 1.75723 21.6077 1.8534 21.6077C1.94956 21.6077 2.04472 21.5891 2.13304 21.5529C2.22137 21.5167 2.30101 21.4637 2.3671 21.3972L12.7759 11.4888C12.8458 11.4259 12.9014 11.3501 12.9394 11.266C12.9775 11.1819 12.9971 11.0914 12.9971 10.9998C12.9971 10.9083 12.9775 10.8177 12.9394 10.7336C12.9014 10.6495 12.8458 10.5737 12.7759 10.5108L2.3671 0.601159C2.30101 0.534662 2.22137 0.481696 2.13304 0.445497C2.04472 0.409298 1.94956 0.390625 1.8534 0.390625C1.75723 0.390625 1.66208 0.409298 1.57375 0.445497C1.48543 0.481696 1.40579 0.534662 1.3397 0.601159L0.222894 1.66427C0.152495 1.72693 0.0962973 1.80264 0.0577488 1.88673C0.0192013 1.97082 -0.000881195 2.06153 -0.00126553 2.15327Z" fill="#0C3D69"/>
</g>
<defs>
<clipPath id="clip0">
<rect width="13" height="22" transform="matrix(-1 0 0 1 13 0)" fill="white"/>
</clipPath>
</defs>
</svg>
