<svg width="34" height="34" viewBox="0 0 34 34" fill="none" xmlns="http://www.w3.org/2000/svg">
<path d="M17 0.78125C7.90234 0.78125 0.53125 8.15234 0.53125 17.25C0.53125 26.3477 7.90234 33.7188 17 33.7188C26.0977 33.7188 33.4688 26.3477 33.4688 17.25C33.4688 8.15234 26.0977 0.78125 17 0.78125ZM20.7852 24.0898L14.875 19.7734C14.6758 19.6406 14.6094 19.4414 14.6094 19.1758V7.95312C14.6094 7.55469 14.9414 7.15625 15.4062 7.15625H18.5938C18.9922 7.15625 19.3906 7.55469 19.3906 7.95312V17.1172L23.5742 20.1719C23.9062 20.4375 24.0391 20.9688 23.7734 21.3008L21.8477 23.8906C21.6484 24.2227 21.1172 24.2891 20.7852 24.0898Z" fill="white"/>
</svg>
