<svg width="32" height="33" viewBox="0 0 32 33" fill="none" xmlns="http://www.w3.org/2000/svg">
<path d="M16.0283 0.609375C7.37071 0.609375 0.32666 7.65278 0.32666 16.3097C0.32666 24.9673 7.37071 32.0114 16.0283 32.0114C24.6859 32.0114 31.7286 24.9679 31.7286 16.3097C31.7286 7.65278 24.6859 0.609375 16.0283 0.609375ZM16.0283 28.6782C9.20903 28.6782 3.65977 23.1296 3.65977 16.3097C3.65977 9.49047 9.20839 3.94249 16.0283 3.94249C22.8475 3.94249 28.3955 9.49047 28.3955 16.3097C28.3949 23.1296 22.8475 28.6782 16.0283 28.6782Z" fill="#0C3D69"/>
<path d="M22.1995 15.6895H16.247V7.21675C16.247 6.97019 16.149 6.73373 15.9747 6.55939C15.8003 6.38505 15.5639 6.28711 15.3173 6.28711C15.0708 6.28711 14.8343 6.38505 14.66 6.55939C14.4856 6.73373 14.3877 6.97019 14.3877 7.21675V16.9291C14.3877 17.1253 14.4493 17.3069 14.5534 17.4561C14.6529 17.6688 14.8109 17.8488 15.0089 17.975C15.2069 18.1012 15.4368 18.1683 15.6717 18.1686H22.1995C22.5282 18.1686 22.8435 18.038 23.0759 17.8055C23.3084 17.5731 23.439 17.2578 23.439 16.9291C23.439 16.6003 23.3084 16.285 23.0759 16.0526C22.8435 15.8201 22.5282 15.6895 22.1995 15.6895Z" fill="#0C3D69"/>
</svg>
