<svg width="480" height="480" xmlns="http://www.w3.org/2000/svg">

 <g>
  <title>background</title>
  <rect fill="none" id="canvas_background" height="402" width="582" y="-1" x="-1"/>
 </g>
 <g>
  <title>Layer 1</title>
  <g id="svg_1">
   <g id="svg_2">
    <path fill="#0c3d69" id="svg_3" d="m400,240c4.417999,0 8,-3.582001 8,-8l0,-112l64,0c4.417999,0 8,-3.582001 8,-8l0,-32c-0.040985,-0.296997 -0.100006,-0.589996 -0.175995,-0.879997c-0.050995,-0.579002 -0.166016,-1.151001 -0.343994,-1.704002c-0.14801,-0.406998 -0.330017,-0.800003 -0.544006,-1.176003c-0.721008,-1.363998 -1.835999,-2.478996 -3.200012,-3.199997c-0.401001,-0.223999 -0.820984,-0.411003 -1.255981,-0.559998c-0.232025,-0.080002 -0.416016,-0.232002 -0.656006,-0.288002l-304,-72.000001c-0.598007,-0.134 -1.210007,-0.198 -1.824005,-0.192l-32,0c-0.945999,0.021 -1.880997,0.21 -2.759995,0.56c-0.216003,0.08 -0.416,0.152 -0.624008,0.248s-0.367996,0.12 -0.543991,0.216l-128.000006,72.000002c-0.395,0.264 -0.764,0.563995 -1.104,0.895996c-0.263,0.187004 -0.514,0.389999 -0.752,0.608002c-0.67,0.681999 -1.211,1.479004 -1.6,2.351997l0,0.096001c-0.349,0.879005 -0.539,1.814003 -0.56,2.760002c0,0.097 -0.056,0.176003 -0.056,0.272003l0,32c0,4.417999 3.582,8 8,8l112,0l0,148.679985l-29.655998,29.656006c-1.5,1.5 -2.344002,3.533997 -2.344002,5.656006l0,128l-16,0l0,48l160,0l0,-48l-16,0l0,-128c0,-2.122009 -0.843994,-4.156006 -2.343994,-5.656006l-29.656006,-29.656006l0,-148.687988l160,0l0,112c0,4.417999 3.582001,8 8,8l16,0l0,24c0,4.417999 3.582001,8 8,8c8.837006,0 16,7.162994 16,16s-7.162994,16 -16,16s-16,-7.162994 -16,-16l0,-8l-16,0l0,8c0.040985,11.678986 6.460999,22.401001 16.735992,27.951996l-60.048004,60.048004l-20.687988,0c-4.417999,0 -8,3.582001 -8,8l0,72c0,4.417999 3.582001,8 8,8l192,0c4.417999,0 8,-3.582001 8,-8l0,-72c0,-4.417999 -3.582001,-8 -8,-8l-20.687988,0l-60.048004,-60.048004c15.494995,-8.35199 21.285004,-27.682983 12.93399,-43.178009c-4.230988,-7.848999 -11.556,-13.566986 -20.197998,-15.765991l0,-17.007996l16,0zm8,-152l56,0l0,16l-56,0l0,-16zm56,304l0,56l-176,0l0,-56l176,0zm-35.312012,-16l-105.375977,0l52.687988,-52.687012l52.687988,52.687012zm-36.687988,-184l-32,0l0,-72l32,0l0,72zm0,-88l-32,0l0,-16l32,0l0,16zm-248,-88l16,0l0,56l-16,0l0,-56zm-8,72l32,0l0,12.688004l-3.311996,3.311996l-28.688004,0l0,-16zm32,35.311996l0,57.376007l-28.688004,-28.688004l28.688004,-28.688004zm-32,-3.311996l12.688004,0l-12.688004,12.688004l0,-12.688004zm0,51.313004l28.688004,28.686996l-28.688004,28.688004l0,-57.375zm32,48l0,52.686996l0,4.687988l-28.688004,-28.687988l28.688004,-28.686996zm-32,52.686996l0,-4.687988l28.688004,28.687988l-28.688004,28.687988l0,-52.687988zm32,43.312988l0,57.376007l-28.688004,-28.688995l28.688004,-28.687012zm-32,48l28.688004,28.687012l-28.688004,28.687988l0,-57.375zm32,48l0,20.687012l-20.688004,0l20.688004,-20.687012zm-40,-389.632988l0,50.32l-89.464001,0l89.464001,-50.32zm-112,82.32l0,-16l104,0l0,16l-104,0zm88,203.312988l16,-16l0,140.687012l-16,0l0,-124.687012zm112,140.687012l0,16l-128,0l0,-16l128,0zm-16,-140.687012l0,124.687012l-16,0l0,-140.687012l16,16zm144,-203.312988l-160,0l0,-16l160,0l0,16zm-168,-32l0,-53.888l227.511993,53.888l-3.511993,0l-224,0zm184,152l0,-16l32,0l0,16l-32,0z"/>
   </g>
  </g>
  <g id="svg_4"/>
  <g id="svg_5"/>
  <g id="svg_6"/>
  <g id="svg_7"/>
  <g id="svg_8"/>
  <g id="svg_9"/>
  <g id="svg_10"/>
  <g id="svg_11"/>
  <g id="svg_12"/>
  <g id="svg_13"/>
  <g id="svg_14"/>
  <g id="svg_15"/>
  <g id="svg_16"/>
  <g id="svg_17"/>
  <g id="svg_18"/>
 </g>
</svg>