<svg width="13" height="22" viewBox="0 0 13 22" fill="none" xmlns="http://www.w3.org/2000/svg">
<g clip-path="url(#clip0)">
<path d="M13.0013 2.15327C13.0009 2.24502 12.9808 2.33573 12.9423 2.41982C12.9037 2.50391 12.8475 2.57961 12.7771 2.64228L3.9988 10.9998L12.7784 19.3561C12.8483 19.419 12.9039 19.4948 12.942 19.5789C12.98 19.663 12.9996 19.7535 12.9996 19.8451C12.9996 19.9366 12.98 20.0272 12.942 20.1113C12.9039 20.1954 12.8483 20.2712 12.7784 20.3341L11.6603 21.3972C11.5942 21.4637 11.5146 21.5167 11.4262 21.5529C11.3379 21.5891 11.2428 21.6077 11.1466 21.6077C11.0504 21.6077 10.9553 21.5891 10.867 21.5529C10.7786 21.5167 10.699 21.4637 10.6329 21.3972L0.224094 11.4888C0.154239 11.4259 0.0985969 11.3501 0.0605698 11.266C0.0225427 11.1819 0.00292969 11.0914 0.00292969 10.9998C0.00292969 10.9083 0.0225427 10.8177 0.0605698 10.7336C0.0985969 10.6495 0.154239 10.5737 0.224094 10.5108L10.6329 0.601159C10.699 0.534662 10.7786 0.481696 10.867 0.445497C10.9553 0.409298 11.0504 0.390625 11.1466 0.390625C11.2428 0.390625 11.3379 0.409298 11.4262 0.445497C11.5146 0.481696 11.5942 0.534662 11.6603 0.601159L12.7771 1.66427C12.8475 1.72693 12.9037 1.80264 12.9423 1.88673C12.9808 1.97082 13.0009 2.06153 13.0013 2.15327Z" fill="white"/>
</g>
<defs>
<clipPath id="clip0">
<rect width="13" height="22" fill="white"/>
</clipPath>
</defs>
</svg>
