<svg width="26" height="35" viewBox="0 0 26 35" fill="none" xmlns="http://www.w3.org/2000/svg">
<path d="M11.4219 33.5859C12.0195 34.5156 13.4141 34.5156 14.0117 33.5859C23.707 19.6406 25.5 18.1797 25.5 13C25.5 5.96094 19.7891 0.25 12.75 0.25C5.64453 0.25 0 5.96094 0 13C0 18.1797 1.72656 19.6406 11.4219 33.5859ZM12.75 18.3125C9.76172 18.3125 7.4375 15.9883 7.4375 13C7.4375 10.0781 9.76172 7.6875 12.75 7.6875C15.6719 7.6875 18.0625 10.0781 18.0625 13C18.0625 15.9883 15.6719 18.3125 12.75 18.3125Z" fill="white"/>
</svg>
