<svg width="38" height="36" viewBox="0 0 38 36" fill="none" xmlns="http://www.w3.org/2000/svg">
<path d="M29.2454 12.5377C29.2454 7.1434 24.6265 2.76953 18.9332 2.76953C13.2385 2.76953 8.61963 7.1434 8.61963 12.5377C8.61963 14.3189 9.13306 15.9845 10.0084 17.4221H10.0004L18.9285 34.5182L27.8633 17.4221H27.8526C28.7652 15.9396 29.2458 14.254 29.2454 12.5377ZM18.9325 15.4371C17.7836 15.4371 16.6817 15.0047 15.8693 14.2351C15.0569 13.4654 14.6005 12.4216 14.6005 11.3331C14.6005 10.2447 15.0569 9.20081 15.8693 8.43116C16.6817 7.66151 17.7836 7.22913 18.9325 7.22913C19.5016 7.22905 20.0651 7.33517 20.5909 7.54145C21.1167 7.74773 21.5944 8.05012 21.9968 8.43135C22.3992 8.81257 22.7184 9.26517 22.9362 9.76328C23.1539 10.2614 23.2659 10.7953 23.2658 11.3344C23.2658 11.8734 23.1536 12.407 22.9358 12.9049C22.7179 13.4028 22.3987 13.8552 21.9963 14.2362C21.5939 14.6172 21.1162 14.9193 20.5905 15.1254C20.0648 15.3314 19.5014 15.4374 18.9325 15.4371Z" fill="#0C3D69"/>
</svg>
