<svg width="512" height="512" xmlns="http://www.w3.org/2000/svg">

 <g>
  <title>background</title>
  <rect fill="none" id="canvas_background" height="514" width="514" y="-1" x="-1"/>
 </g>
 <g>
  <title>Layer 1</title>
  <g id="svg_1">
   <g id="svg_2">
    <g id="svg_3">
     <path fill="#0c3d69" id="svg_4" d="m10.688,95.155998c70.27,59.511009 193.571995,164.208992 229.812,196.854012c4.865005,4.406006 10.082993,6.645996 15.5,6.645996c5.406006,0 10.61499,-2.218994 15.468994,-6.604004c36.270996,-32.677002 159.572998,-137.384979 229.843994,-196.895988c4.375,-3.698006 5.041992,-10.198006 1.5,-14.719002c-8.187988,-10.447014 -20.395996,-16.437012 -33.47998,-16.437012l-426.666008,0c-13.083,0 -25.292,5.989998 -33.479,16.438004c-3.542,4.519997 -2.875,11.019997 1.5,14.717995z"/>
     <path fill="#0c3d69" id="svg_5" d="m505.812988,127.405998c-3.781006,-1.759995 -8.229004,-1.145996 -11.375,1.542c-46.020996,39.009995 -106.656006,90.552002 -152.38501,129.884979c-2.405975,2.063019 -3.759979,5.094025 -3.707977,8.271027c0.052002,3.166992 1.520996,6.155975 4,8.134979c42.48999,34.031006 106.520996,80.843994 152.759979,114.115021c1.844025,1.332977 4.031006,2.009979 6.229004,2.009979c1.666992,0 3.333008,-0.384979 4.865021,-1.177002c3.562988,-1.822998 5.801971,-5.48999 5.801971,-9.48999l0,-243.613998c-0.000977,-4.155991 -2.417969,-7.936996 -6.187988,-9.676994z"/>
     <path fill="#0c3d69" id="svg_6" d="m16.896,389.354004c46.25,-33.270996 110.292004,-80.083008 152.771008,-114.11499c2.478989,-1.979004 3.947998,-4.968994 4,-8.13501c0.051987,-3.177002 -1.302002,-6.208008 -3.708008,-8.270996c-45.730003,-39.333008 -106.375999,-90.875015 -152.396,-129.88501c-3.167,-2.687996 -7.625,-3.280998 -11.375,-1.542c-3.771,1.739998 -6.188,5.521004 -6.188,9.676994l0,243.615005c0,4 2.24,7.666992 5.802,9.48999c1.531,0.792023 3.198,1.177002 4.865,1.177002c2.198,0 4.385,-0.677002 6.229,-2.010986z"/>
     <path fill="#0c3d69" id="svg_7" d="m498.927002,418.375c-44.656006,-31.947998 -126.916992,-91.51001 -176.020996,-131.365021c-4,-3.259979 -9.791992,-3.155975 -13.729004,0.240021c-9.634979,8.405975 -17.697998,15.48999 -23.416992,20.634979c-17.562988,15.854004 -41.938004,15.854004 -59.541992,-0.020996c-5.698013,-5.134979 -13.76001,-12.23999 -23.396011,-20.61499c-3.905991,-3.416992 -9.707993,-3.520996 -13.718994,-0.23999c-48.938004,39.718994 -131.292011,99.353973 -176.021002,131.36499c-2.490001,1.791992 -4.094,4.552002 -4.406,7.604004c-0.302,3.052002 0.708,6.083008 2.802,8.333008c8.07399,8.699005 19.44899,13.688995 31.18899,13.688995l426.666985,0c11.740021,0 23.104004,-4.98999 31.197998,-13.687988c2.083008,-2.240021 3.104004,-5.271027 2.802002,-8.322998c-0.312988,-3.051025 -1.916992,-5.822021 -4.406982,-7.614014z"/>
    </g>
   </g>
  </g>
  <g id="svg_8"/>
  <g id="svg_9"/>
  <g id="svg_10"/>
  <g id="svg_11"/>
  <g id="svg_12"/>
  <g id="svg_13"/>
  <g id="svg_14"/>
  <g id="svg_15"/>
  <g id="svg_16"/>
  <g id="svg_17"/>
  <g id="svg_18"/>
  <g id="svg_19"/>
  <g id="svg_20"/>
  <g id="svg_21"/>
  <g id="svg_22"/>
 </g>
</svg>