<svg width="36" height="36" viewBox="0 0 36 36" fill="none" xmlns="http://www.w3.org/2000/svg">
<g clip-path="url(#clip0)">
<path d="M25.7503 24.2313C25.0471 23.5283 24.0934 23.1334 23.0991 23.1334C22.1047 23.1334 21.151 23.5283 20.4478 24.2313L19.8703 24.8073C16.7272 22.1727 13.8215 19.267 11.1868 16.1238L11.7643 15.5463C12.1126 15.1981 12.389 14.7847 12.5775 14.3296C12.766 13.8746 12.863 13.3869 12.863 12.8943C12.863 12.4018 12.766 11.9141 12.5775 11.459C12.389 11.004 12.1126 10.5906 11.7643 10.2423L8.58132 7.06084C7.87809 6.35782 6.92443 5.96289 5.93007 5.96289C4.9357 5.96289 3.98205 6.35782 3.27882 7.06084L1.53282 8.80684C0.682114 9.66405 0.151966 10.7877 0.0312563 11.9893C-0.0894537 13.1909 0.206612 14.3975 0.869817 15.4068C6.06054 23.2279 12.763 29.9318 20.5828 35.1243C21.595 35.7789 22.7997 36.0698 23.999 35.9493C25.1983 35.8289 26.3211 35.3041 27.1828 34.4613L28.9303 32.7153C29.6333 32.0121 30.0283 31.0585 30.0283 30.0641C30.0283 29.0697 29.6333 28.1161 28.9303 27.4128L25.7503 24.2313Z" fill="#0C3D69"/>
<path d="M17.25 0C16.8522 0 16.4706 0.158035 16.1893 0.43934C15.908 0.720644 15.75 1.10218 15.75 1.5C15.75 1.89782 15.908 2.27936 16.1893 2.56066C16.4706 2.84196 16.8522 3 17.25 3C21.4257 3.00476 25.429 4.66566 28.3817 7.61833C31.3343 10.571 32.9952 14.5743 33 18.75C33 19.1478 33.158 19.5294 33.4393 19.8107C33.7206 20.092 34.1022 20.25 34.5 20.25C34.8978 20.25 35.2794 20.092 35.5607 19.8107C35.842 19.5294 36 19.1478 36 18.75C35.994 13.779 34.0167 9.01334 30.5017 5.49832C26.9867 1.98331 22.221 0.00595447 17.25 0V0Z" fill="#0C3D69"/>
<path d="M17.25 9C19.8349 9.00318 22.313 10.0314 24.1408 11.8592C25.9686 13.687 26.9968 16.1651 27 18.75C27 19.1478 27.158 19.5294 27.4393 19.8107C27.7206 20.092 28.1022 20.25 28.5 20.25C28.8978 20.25 29.2794 20.092 29.5607 19.8107C29.842 19.5294 30 19.1478 30 18.75C29.996 15.3697 28.6515 12.129 26.2612 9.73877C23.871 7.34854 20.6303 6.00397 17.25 6C16.8522 6 16.4706 6.15804 16.1893 6.43934C15.908 6.72064 15.75 7.10218 15.75 7.5C15.75 7.89782 15.908 8.27936 16.1893 8.56066C16.4706 8.84196 16.8522 9 17.25 9Z" fill="#0C3D69"/>
<path d="M17.25 15C18.2446 15 19.1984 15.3951 19.9017 16.0983C20.6049 16.8016 21 17.7554 21 18.75C21 19.1478 21.158 19.5294 21.4393 19.8107C21.7206 20.092 22.1022 20.25 22.5 20.25C22.8978 20.25 23.2794 20.092 23.5607 19.8107C23.842 19.5294 24 19.1478 24 18.75C23.998 16.9604 23.2862 15.2447 22.0208 13.9792C20.7553 12.7138 19.0396 12.002 17.25 12C16.8522 12 16.4706 12.158 16.1893 12.4393C15.908 12.7206 15.75 13.1022 15.75 13.5C15.75 13.8978 15.908 14.2794 16.1893 14.5607C16.4706 14.842 16.8522 15 17.25 15Z" fill="#0C3D69"/>
</g>
<defs>
<clipPath id="clip0">
<rect width="36" height="36" fill="white"/>
</clipPath>
</defs>
</svg>
