<svg width="20" height="20" viewBox="0 0 20 20" fill="none" xmlns="http://www.w3.org/2000/svg">
<path d="M19.4431 18.4546L13.9959 13.0066C15.1315 11.6446 15.7524 9.92677 15.7501 8.15339C15.7501 3.95714 12.3489 0.556641 8.15339 0.556641C3.95789 0.556641 0.556641 3.95789 0.556641 8.15339C0.556641 12.3489 3.95864 15.7501 8.15339 15.7501C9.99989 15.7501 11.6904 15.0909 13.0066 13.9959L18.4539 19.4439L19.4431 18.4546ZM1.35614 8.15339C1.35614 4.40564 4.40489 1.35614 8.15339 1.35614C11.9011 1.35614 14.9506 4.40564 14.9506 8.15339C14.9506 11.9011 11.9011 14.9506 8.15339 14.9506C4.40489 14.9506 1.35614 11.9011 1.35614 8.15339Z" fill="white"/>
</svg>
