<svg width="512" height="512" xmlns="http://www.w3.org/2000/svg">

 <g>
  <title>background</title>
  <rect fill="none" id="canvas_background" height="402" width="582" y="-1" x="-1"/>
 </g>
 <g>
  <title>Layer 1</title>
  <g id="svg_1">
   <g id="svg_2">
    <path fill="#0c3d69" id="svg_3" d="m486.625,191.229996l-10.171997,0l0,-37.805008c0,-22.348999 -18.182007,-40.530991 -40.531006,-40.530991l-146.890991,0c-13.617004,0 -25.678009,6.756996 -33.031006,17.085999c-7.352997,-10.329994 -19.413986,-17.085999 -33.030991,-17.085999l-92.281998,0c-4.141998,0 -7.5,3.358002 -7.5,7.5c0,4.141998 3.358002,7.5 7.5,7.5l92.281998,0c14.078003,0 25.531006,11.453003 25.531006,25.531006l0,75.009995c-0.156998,-0.151001 -0.322998,-0.291992 -0.48201,-0.440994c-8.889999,-8.289001 -20.938995,-13.067001 -33.100998,-13.067001l-124.928009,0c-0.660995,-10.070007 -7.526001,-18.927002 -16.999001,-22.285004c-2.668999,-0.945999 -5.490997,-1.412003 -8.321999,-1.412003l-14.120998,0l0,-37.804993c0,-14.078003 11.452999,-25.531006 25.531002,-25.531006l24.608994,0c4.142006,0 7.5,-3.358002 7.5,-7.5c0,-4.141998 -3.357994,-7.5 -7.5,-7.5l-24.608994,0c-22.348999,0 -40.530998,18.182007 -40.530998,40.531006l0,37.804993l-10.172005,0c-13.992,0 -25.375,11.38501 -25.375,25.375l0,78.310989c0,29.138 23.705999,52.844025 52.844002,52.844025l3.769001,0c0,0 -8.212002,22.087982 -8.218002,22.10498c-5.181,13.93399 5.483002,29.240997 20.325001,29.240997l12.066002,0c6.753998,0 13.219002,-3.216003 17.293999,-8.602997l32.331009,-42.743011l251.179993,0l32.330994,42.744019c4.075012,5.385986 10.540009,8.60199 17.292999,8.60199c0,0 12.058014,0 12.065002,0c14.859985,0 25.505005,-15.309998 20.325012,-29.240997l-8.219025,-22.10498l3.77002,0c29.138,0 52.843994,-23.706024 52.843994,-52.844025l0,-78.310989c0,-13.98999 -11.382996,-25.375 -25.375,-25.375zm-223.125,-37.802994c0,-14.078995 11.453003,-25.531998 25.531006,-25.531998l146.890991,0c14.078003,0 25.531006,11.453003 25.531006,25.531006l0,37.804993c0,0 -14.117004,0 -14.122009,0c-9.971985,0 -19.537994,6.399994 -23.405975,15.582001c-1.083008,2.570999 -1.732025,5.332993 -1.914001,8.115997c0,0 -124.924011,0 -124.928009,0c-12.350006,0 -24.658997,4.969009 -33.583008,13.507996l0,-75.009995zm-173.456001,76.500992l124.873009,0c18.51799,0.001007 33.582993,15.065994 33.582993,33.584l0,10.665009l-158.456001,0l0,-44.249008zm-3.927002,151.526016c-1.255997,1.661011 -3.25,2.652008 -5.332001,2.652008c0,0 -12.024002,0 -12.066002,0c-4.591995,0 -7.864998,-4.710999 -6.264996,-9.013l10.161999,-27.333008l38.986,0l-25.485001,33.694zm357.163002,2.651001l-12.065002,0c-2.082001,0 -4.075012,-0.990997 -5.330994,-2.651001l-25.485992,-33.694l38.985992,0c0,0 10.126984,27.237 10.161987,27.332001c1.602997,4.311981 -1.692993,9.013 -6.265991,9.013zm15.876007,-51.345001l-406.312004,0c-20.867002,0.000977 -37.844002,-16.97702 -37.844002,-37.844025l0,-78.311005c0,-5.720993 4.653999,-10.375 10.375,-10.375l39.292999,0c5.721001,0 10.375,4.654007 10.375,10.375l0,65.071014c0,4.141998 3.358002,7.5 7.5,7.5l275.47699,0c4.141998,0 7.5,-3.358002 7.5,-7.5c0,-4.141998 -3.358002,-7.5 -7.5,-7.5l-94.519989,0l0,-10.665009c0,-18.518005 15.065002,-33.582993 33.583008,-33.582993l124.872986,0l0,44.249008l-33.936005,0c-4.141998,0 -7.5,3.357971 -7.5,7.5c0,4.141998 3.358002,7.5 7.5,7.5l41.436005,0c4.141998,0 7.5,-3.358002 7.5,-7.5l0,-65.071014c0,-5.720993 4.653992,-10.375 10.375,-10.375l39.292999,0c5.721008,0 10.375,4.654007 10.375,10.375l0,78.309998l0.001007,0c0,20.867004 -16.97699,37.844025 -37.843994,37.844025z"/>
   </g>
  </g>
  <g id="svg_4"/>
  <g id="svg_5"/>
  <g id="svg_6"/>
  <g id="svg_7"/>
  <g id="svg_8"/>
  <g id="svg_9"/>
  <g id="svg_10"/>
  <g id="svg_11"/>
  <g id="svg_12"/>
  <g id="svg_13"/>
  <g id="svg_14"/>
  <g id="svg_15"/>
  <g id="svg_16"/>
  <g id="svg_17"/>
  <g id="svg_18"/>
 </g>
</svg>